<?xml version="1.0" encoding="UTF-8" standalone="no"?>
<!-- Created with Inkscape (http://www.inkscape.org/) -->

<svg
   width="242.99998mm"
   height="161.99998mm"
   viewBox="0 0 242.99998 161.99999"
   version="1.1"
   id="svg5"
   inkscape:version="1.2.1 (9c6d41e410, 2022-07-14)"
   sodipodi:docname="case-cut.svg"
   xmlns:inkscape="http://www.inkscape.org/namespaces/inkscape"
   xmlns:sodipodi="http://sodipodi.sourceforge.net/DTD/sodipodi-0.dtd"
   xmlns="http://www.w3.org/2000/svg"
   xmlns:svg="http://www.w3.org/2000/svg">
  <sodipodi:namedview
     id="namedview7"
     pagecolor="#ffffff"
     bordercolor="#000000"
     borderopacity="0.25"
     inkscape:showpageshadow="2"
     inkscape:pageopacity="0.0"
     inkscape:pagecheckerboard="0"
     inkscape:deskcolor="#d1d1d1"
     inkscape:document-units="mm"
     showgrid="true"
     inkscape:zoom="0.7755545"
     inkscape:cx="472.56511"
     inkscape:cy="114.7566"
     inkscape:window-width="1920"
     inkscape:window-height="1052"
     inkscape:window-x="0"
     inkscape:window-y="0"
     inkscape:window-maximized="1"
     inkscape:current-layer="layer1">
    <inkscape:grid
       type="xygrid"
       id="grid182"
       units="mm"
       spacingx="0.99999999"
       spacingy="0.99999999"
       dotted="false"
       originx="-264.00001"
       originy="-177.00002"
       empspacing="3" />
  </sodipodi:namedview>
  <defs
     id="defs2" />
  <g
     inkscape:label="Layer 1"
     inkscape:groupmode="layer"
     id="layer1"
     transform="translate(-264,-176.99998)">
    <rect
       style="opacity:1;fill:#ffffff;fill-opacity:1;stroke:none;stroke-width:0.12;stroke-linecap:round"
       id="rect296"
       width="242.99998"
       height="161.99998"
       x="264"
       y="176.99998"
       ry="1.7583091e-06" />
    <path
       id="rect296-0"
       style="fill:none;stroke:#000000;stroke-width:0.5;stroke-linecap:round;stroke-dasharray:none;stroke-opacity:1"
       d="m 436.50038,184.49991 h -3.00033 -2.99982 v -2.99982 h -6.00015 v 2.99982 h -5.99964 v -2.99982 h -6.00015 v 2.99982 h -6.00015 v -2.99982 h -6.00015 v 2.99982 h -5.99963 v -2.99982 h -6.00015 v 2.99982 h -2.99982 -3.00033 v 8.99996 h 3.00033 v 8.99997 h -3.00033 v 8.99997 h 3.00033 v 8.99997 h -3.00033 v 8.99996 h 3.00033 v 6.00015 h -3.00033 v 8.99997 h 3.00033 v 8.99997 h -3.00033 v 8.99997 h 3.00033 v 8.99996 h -3.00033 v 8.99997 h 3.00033 2.99982 v 3.00033 h 6.00015 v -3.00033 h 5.99963 v 3.00033 h 6.00015 v -3.00033 h 6.00015 v 3.00033 h 6.00015 v -3.00033 h 5.99964 v 3.00033 h 6.00015 v -3.00033 h 2.99982 v -8.99997 h 3.00033 v -8.99996 h -3.00033 v -8.99997 h 3.00033 v -8.99997 h -3.00033 v -8.99997 h 3.00033 v -6.00015 h -3.00033 v -20.99975 h 3.00033 v -6.00015 h -3.00033 v -8.99997 h 3.00033 z m -12.0003,18.99987 v 3.00033 h -8.99997 v -3.00033 z m 0,29.0003 v 2.99981 h -8.99997 v -2.99981 z m -20.99975,-29.0003 v 3.00033 h -8.99997 v -3.00033 z m 0,29.0003 v 2.99981 h -8.99997 v -2.99981 z m -5.00022,-22.00021 v 6.00015 h -2.99981 v -6.00015 z m 0,12.0003 v 5.99963 h -2.99981 v -5.99963 z" />
    <path
       id="rect1012-4"
       style="fill:none;stroke:#000000;stroke-width:0.499999;stroke-linecap:round;stroke-dasharray:none;stroke-opacity:1"
       d="m 436.50038,286.49988 h -6.00015 v 2.99982 h -6.00015 v -2.99982 h -5.99964 v 2.99982 h -6.00015 v -2.99982 h -6.00015 v 2.99982 h -6.00015 v -2.99982 h -5.99963 v 2.99982 h -6.00015 v -2.99982 h -6.00015 v 2.99982 h 3.00033 v 6.00015 h -3.00033 V 301.5 h 3.00033 v 6.00015 h -3.00033 v 5.99963 h 3.00033 v 6.00015 h -3.00033 v 6.00015 h 3.00033 v 5.99964 h -3.00033 v 3.00033 h 6.00015 v -3.00033 h 6.00015 v 3.00033 h 5.99963 v -3.00033 h 6.00015 v 3.00033 h 6.00015 v -3.00033 h 6.00015 v 3.00033 h 5.99964 v -3.00033 h 6.00015 v 3.00033 h 6.00015 v -3.00033 h -3.00033 v -5.99964 h 3.00033 v -6.00015 h -3.00033 v -6.00015 h 3.00033 v -5.99963 h -3.00033 V 301.5 h 3.00033 v -6.00015 h -3.00033 v -6.00015 h 3.00033 z m -14.00018,30.00024 a 3.5,3.5 0 0 1 -3.50004,3.50004 3.5,3.5 0 0 1 -3.50005,-3.50004 3.5,3.5 0 0 1 3.50005,-3.50005 3.5,3.5 0 0 1 3.50004,3.50005 z" />
    <path
       id="rect1014-87"
       style="fill:none;stroke:#000000;stroke-width:0.499999;stroke-linecap:round;stroke-dasharray:none;stroke-opacity:1"
       d="m 487.50037,193.49987 h -3.00034 v -8.99996 -2.99982 h -5.99963 v 2.99982 h -6.00015 v -2.99982 h -6.00015 v 2.99982 h -6.00015 v -2.99982 h -5.99964 v 2.99982 h -6.00015 v -2.99982 h -6.00015 v 2.99982 8.99996 h -2.99981 v 8.99997 h 2.99981 v 6.00015 h -2.99981 v 20.99975 h 2.99981 v 6.00015 h -2.99981 v 8.99997 h 2.99981 v 8.99997 h -2.99981 v 8.99997 h 2.99981 v 8.99996 h -2.99981 v 8.99997 h 2.99981 v 3.00033 h 6.00015 v -3.00033 h 6.00015 v 3.00033 h 5.99964 v -3.00033 h 6.00015 v 3.00033 h 6.00015 v -3.00033 h 6.00015 v 3.00033 h 5.99963 v -3.00033 -8.99997 h 3.00034 v -8.99996 h -3.00034 v -8.99997 h 3.00034 v -8.99997 h -3.00034 v -8.99997 h 3.00034 v -6.00015 h -3.00034 v -8.99996 h 3.00034 v -8.99997 h -3.00034 v -8.99997 h 3.00034 z m -8.99997,9.99991 v 3.00033 h -6.00015 v -3.00033 z m 0,29.0003 v 2.99981 h -6.00015 v -2.99981 z m -12.0003,-29.0003 v 3.00033 h -6.00015 v -3.00033 z m 0,29.0003 v 2.99981 h -6.00015 v -2.99981 z m -11.99979,-29.0003 v 3.00033 h -6.00015 v -3.00033 z m 0,29.0003 v 2.99981 h -6.00015 v -2.99981 z m -1.99987,-17.99994 v 8.99997 a 4.4999995,4.5000043 0 0 1 -4.49999,4.49998 4.4999995,4.5000043 0 0 1 -4.5005,-4.49998 v -8.99997 a 4.4999995,4.5000043 0 0 1 4.5005,-4.49998 4.4999995,4.5000043 0 0 1 4.49999,4.49998 z" />
    <path
       id="rect1012-2-5"
       style="fill:none;stroke:#000000;stroke-width:0.499999;stroke-linecap:round;stroke-dasharray:none;stroke-opacity:1"
       d="m 379.50024,286.49988 h -6.00015 v 2.99982 h -5.99963 v -2.99982 h -6.00015 v 2.99982 h -6.00015 v -2.99982 H 349.5 v 2.99982 h -5.99963 v -2.99982 h -6.00015 v 2.99982 h -6.00015 v -2.99982 h -5.99963 v 2.99982 h 2.99981 v 6.00015 h -2.99981 V 301.5 h 2.99981 v 6.00015 h -2.99981 v 5.99963 h 2.99981 v 6.00015 h -2.99981 v 6.00015 h 2.99981 v 5.99964 h -2.99981 v 3.00033 h 5.99963 v -3.00033 h 6.00015 v 3.00033 h 6.00015 v -3.00033 H 349.5 v 3.00033 h 6.00016 v -3.00033 h 6.00015 v 3.00033 h 6.00015 v -3.00033 h 5.99963 v 3.00033 h 6.00015 v -3.00033 h -2.99982 v -5.99964 h 2.99982 v -6.00015 h -2.99982 v -6.00015 h 2.99982 v -5.99963 h -2.99982 V 301.5 h 2.99982 v -6.00015 h -2.99982 v -6.00015 h 2.99982 z" />
    <path
       id="rect1012-2-6-4"
       style="fill:none;stroke:#000000;stroke-width:0.499999;stroke-linecap:round;stroke-dasharray:none;stroke-opacity:1"
       d="m 322.5001,295.49985 h -2.99981 v -6.00015 h -17 v 5.00021 h 4.99969 v 1.99988 h -4.99969 v 20.00033 h -14.00018 v -20.00033 h -4.99969 v -1.99988 h 4.99969 v -5.00021 h -17 v 6.00015 H 268.5003 V 301.5 h 2.99981 v 6.00015 h -2.99981 v 5.99963 h 2.99981 v 6.00015 h -2.99981 v 6.00015 h 2.99981 v 5.99964 h 8.99997 v 3.00033 h 8.99997 v -3.00033 h 12.0003 v 3.00033 h 8.99997 v -3.00033 h 8.99997 v -5.99964 h 2.99981 v -6.00015 h -2.99981 v -6.00015 h 2.99981 v -5.99963 h -2.99981 V 301.5 h 2.99981 z m -34.99993,26.9999 v 8.99997 h -2.99982 v -8.99997 z" />
    <path
       id="rect1014-8-2"
       style="fill:none;stroke:#000000;stroke-width:0.499999;stroke-linecap:round;stroke-dasharray:none;stroke-opacity:1"
       d="m 379.50024,193.49987 h -2.99982 v -8.99996 -2.99982 h -6.00015 v 2.99982 h -6.00015 v -2.99982 h -6.00015 v 2.99982 h -5.99963 v -2.99982 h -6.00015 v 2.99982 h -6.00015 v -2.99982 h -5.99964 v 2.99982 8.99996 h -3.00033 v 8.99997 h 3.00033 v 8.99997 h -3.00033 v 8.99997 h 3.00033 v 8.99996 h -3.00033 v 6.00015 h 3.00033 v 8.99997 h -3.00033 v 8.99997 h 3.00033 v 8.99997 h -3.00033 v 8.99996 h 3.00033 v 8.99997 3.00033 h 5.99964 v -3.00033 h 6.00015 v 3.00033 h 6.00015 v -3.00033 h 5.99963 v 3.00033 h 6.00015 v -3.00033 h 6.00015 v 3.00033 h 6.00015 v -3.00033 -8.99997 h 2.99982 v -8.99996 h -2.99982 v -8.99997 h 2.99982 v -8.99997 h -2.99982 v -8.99997 h 2.99982 v -6.00015 h -2.99982 v -8.99996 h 2.99982 v -8.99997 h -2.99982 v -8.99997 h 2.99982 z m -8.99997,9.99991 v 3.00033 h -6.00015 v -3.00033 z m 0,29.0003 v 2.99981 h -6.00015 v -2.99981 z m -12.0003,-29.0003 v 3.00033 h -5.99963 v -3.00033 z m 0,29.0003 v 2.99981 h -5.99963 v -2.99981 z m -11.99978,-29.0003 v 3.00033 h -6.00015 v -3.00033 z m 0,29.0003 v 2.99981 h -6.00015 v -2.99981 z" />
    <path
       id="rect296-3-4"
       style="fill:none;stroke:#000000;stroke-width:0.5;stroke-linecap:round;stroke-dasharray:none;stroke-opacity:1"
       d="m 328.50025,184.49991 h -2.99981 -3.00034 v -2.99982 h -6.00015 v 2.99982 h -5.99963 v -2.99982 h -6.00015 v 2.99982 h -6.00015 v -2.99982 h -5.99964 v 2.99982 h -6.00015 v -2.99982 h -6.00015 v 2.99982 h -2.99981 -2.99982 v 8.99996 h 2.99982 v 8.99997 h -2.99982 v 8.99997 h 2.99982 v 8.99997 h -2.99982 v 8.99996 h 2.99982 v 6.00015 h -2.99982 v 8.99997 h 2.99982 v 8.99997 h -2.99982 v 8.99997 h 2.99982 v 8.99996 h -2.99982 v 8.99997 h 2.99982 2.99981 v 3.00033 h 6.00015 v -3.00033 h 6.00015 v 3.00033 h 5.99964 v -3.00033 h 6.00015 v 3.00033 h 6.00015 v -3.00033 h 5.99963 v 3.00033 h 6.00015 v -3.00033 h 3.00034 2.99981 v -8.99997 h -2.99981 v -8.99996 h 2.99981 v -8.99997 h -2.99981 v -8.99997 h 2.99981 v -8.99997 h -2.99981 v -6.00015 h 2.99981 v -8.99996 h -2.99981 v -8.99997 h 2.99981 v -8.99997 h -2.99981 v -8.99997 h 2.99981 z m -19.99981,26.9999 v 30.00023 h -14.00018 v -30.00023 z m -1.00046,-17.99994 a 6,6 0 0 1 -5.99963,6.00015 6,6 0 0 1 -6.00015,-6.00015 6,6 0 0 1 6.00015,-6.00015 6,6 0 0 1 5.99963,6.00015 z m 0,63.00029 a 6,6 0 0 1 -5.99963,5.99964 6,6 0 0 1 -6.00015,-5.99964 6,6 0 0 1 6.00015,-6.00015 6,6 0 0 1 5.99963,6.00015 z" />
    <path
       id="rect1012-2-6-8-4"
       style="fill:none;stroke:#000000;stroke-width:0.499999;stroke-linecap:round;stroke-dasharray:none;stroke-opacity:1"
       d="m 493.5,292.50003 h -2.99982 v -6.00015 h -48.00017 v 6.00015 h -2.99981 v 6.00015 h 2.99981 v 5.99964 h -2.99981 v 6.00015 h 2.99981 v 6.00015 h -2.99981 v 5.99963 h 2.99981 v 6.00015 h 8.99997 v 2.99982 h 8.99997 v -2.99982 h 12.0003 v 2.99982 h 8.99997 v -2.99982 h 8.99996 v -6.00015 H 493.5 v -5.99963 h -2.99982 v -6.00015 H 493.5 v -6.00015 h -2.99982 v -5.99964 H 493.5 Z m -8.99997,6.00015 v 14.9996 h -35.99987 v -14.9996 z m -5.99963,-7.00009 v 1.99988 h -24.00009 v -1.99988 z m -20.00033,27.99984 v 8.99997 h -2.99982 v -8.99997 z" />
    <path
       id="rect4973-2-2"
       style="fill:none;fill-opacity:1;stroke:#020202;stroke-width:0.499999;stroke-linecap:round;stroke-dasharray:none;stroke-opacity:1"
       d="M 499.50015,262.4998 H 493.5 490.50018 v 6.00015 H 493.5 v 6.00015 h -2.99982 v 5.99963 h 2.99982 6.00015 z" />
    <path
       id="rect5114-7"
       style="fill:none;fill-opacity:1;stroke:#020202;stroke-width:0.499999;stroke-linecap:round;stroke-dasharray:none;stroke-opacity:1"
       d="m 502.49997,227.49986 h -2.99982 v -2.99981 h -8.99997 v 2.99981 25.99997 3.00033 h 8.99997 v -3.00033 h 2.99982 z m -7.78299,0 v 25.99997 h -1.99988 v -25.99997 z" />
  </g>
</svg>
